<!DOCTYPE svg PUBLIC "-//W3C//DTD SVG 1.1//EN" "http://www.w3.org/Graphics/SVG/1.1/DTD/svg11.dtd">
<!-- Uploaded to: SVG Repo, www.svgrepo.com, Transformed by: SVG Repo Mixer Tools -->
<svg fill="#3B82F6" version="1.1" id="Layer_1" xmlns:x="&amp;ns_extend;" xmlns:i="&amp;ns_ai;" xmlns:graph="&amp;ns_graphs;" xmlns="http://www.w3.org/2000/svg" xmlns:xlink="http://www.w3.org/1999/xlink" width="800px" height="800px" viewBox="-2.4 -2.4 28.80 28.80" enable-background="new 0 0 24 24" xml:space="preserve" stroke="#3B82F6">
<g id="SVGRepo_bgCarrier" stroke-width="0"/>
<g id="SVGRepo_tracerCarrier" stroke-linecap="round" stroke-linejoin="round"/>
<g id="SVGRepo_iconCarrier"> <metadata> <sfw> <slices> </slices> <slicesourcebounds width="505" height="984" bottomleftorigin="true" x="0" y="-552"> </slicesourcebounds> </sfw> </metadata> <g> <g> <g> <path d="M14,17h-4c-3.3,0-6-2.7-6-6V4c0-0.6,0.4-1,1-1h14c0.6,0,1,0.4,1,1v7C20,14.3,17.3,17,14,17z M6,5v6c0,2.2,1.8,4,4,4h4 c2.2,0,4-1.8,4-4V5H6z"/> </g> </g> <g> <g> <path d="M19,21H5c-0.6,0-1-0.4-1-1s0.4-1,1-1h14c0.6,0,1,0.4,1,1S19.6,21,19,21z"/> </g> </g> <g> <g> <path d="M19.5,11.5H19c-0.6,0-1-0.4-1-1V4c0-0.6,0.4-1,1-1h2c1.7,0,3,1.3,3,3v1C24,9.5,22,11.5,19.5,11.5z M20,5v4.4 c1.1-0.2,2-1.2,2-2.4V6c0-0.6-0.4-1-1-1H20z"/> </g> </g> </g> </g>
</svg>