<?xml version="1.0" encoding="utf-8"?><!-- Uploaded to: SVG Repo, www.svgrepo.com, Generator: SVG Repo Mixer Tools -->
<svg fill="#000000" width="800px" height="800px" viewBox="-4 0 24 24" xmlns="http://www.w3.org/2000/svg">
  <defs>
    <style>
      .cls-1 {
        fill-rule: evenodd;
      }
    </style>
  </defs>
  <path id="glass" class="cls-1" d="M1296.98,398.914a0.269,0.269,0,0,1,.02.086v7h3a1,1,0,0,1,0,2h-8a1,1,0,0,1,0-2h3v-7a0.269,0.269,0,0,1,.02-0.086c-4.39-.732-7.02-6.281-7.02-10.914v-4h16v4C1304,392.633,1301.37,398.182,1296.98,398.914ZM1290,386v2c0,3.866,2.13,9,6,9s6-5.134,6-9v-2h-12Z" transform="translate(-1288 -384)"/>
</svg>